<svg width="227" height="193" viewBox="0 0 227 193" fill="none" xmlns="http://www.w3.org/2000/svg">
<g clip-path="url(#clip0_549_180)">
<path d="M201.785 65.4473C178.482 56.2768 154.946 57.2531 148.978 67.9926C142.952 78.8167 151.726 104.447 168.29 125.727C184.855 146.995 208.266 146.299 221.184 123.071C233.896 99.9093 225.024 74.5886 201.785 65.4473Z" fill="#FF9700"/>
<path d="M83.2983 72.8595C103.972 86.9592 127.132 91.2217 135.336 82.075C143.614 72.8595 140.758 45.9328 129.34 21.5223C117.921 -2.87496 94.947 -7.38347 77.193 12.3942C59.6589 32.1533 62.6797 58.7995 83.2983 72.8595Z" fill="#006ECD"/>
<path d="M157.386 147.082C154.074 122.294 141.768 102.235 129.47 102.254C117.066 102.265 98.909 122.386 88.3467 147.188C77.795 171.982 89.7935 192.07 116.403 192.04C142.849 191.858 160.69 171.802 157.386 147.082Z" fill="#EF151E"/>
<path d="M63.0056 82.6313C58.7897 82.6313 55.9517 85.2269 55.9517 89.0898V92.9792H65.9682C65.9682 92.9792 66.3021 125.978 65.9231 129.436C65.5442 132.894 64.6645 138.522 58.4717 141.472C53.1296 144.017 53.0183 146.428 52.6791 148.568C52.2366 151.346 52.7586 151.698 54.7831 151.204C62.7407 149.256 71.2122 146.068 75.4971 138.21C77.8236 133.945 78.7537 129.325 78.7537 122.314V92.9766C82.9962 92.9289 86.0568 90.2276 86.0568 86.5181V82.6313H63.0056ZM51.8709 127.124C51.8709 127.124 43.8366 138.628 28.2316 138.628C12.1337 138.628 0 126.322 0 110C0 93.4608 12.1337 80.9883 28.2316 80.9883C43.553 80.9883 51.6669 92.4897 51.6669 92.4897C51.6669 92.4897 47.3768 97.075 43.2589 97.075C41.2503 97.075 39.7479 96.1463 38.0095 95.0774C35.6856 93.6433 33.0464 92.0188 28.2342 92.0188C19.0816 92.0188 11.6355 100.083 11.6355 110C11.6355 119.707 19.0816 127.605 28.2342 127.605C33.6664 127.605 36.2182 126.05 38.4706 124.679C40.0711 123.703 41.5842 122.779 43.773 122.779C48.4102 122.779 51.8709 127.124 51.8709 127.124Z" fill="black"/>
</g>
<defs>
<clipPath id="clip0_549_180">
<rect width="227" height="192.03" fill="white"/>
</clipPath>
</defs>
</svg>
